<svg width="73" height="73" viewBox="0 0 133 133" fill="none" xmlns="http://www.w3.org/2000/svg">
<g filter="url(#filter0_dddd_2_24)">
<mask id="path-1-inside-1_2_24" fill="white">
<path fill-rule="evenodd" clip-rule="evenodd" d="M24 0C12.9543 0 4 8.95431 4 20V105C4 116.046 12.9543 125 24 125H109C120.046 125 129 116.046 129 105V20C129 8.9543 120.046 0 109 0H24ZM50.078 88.512C51.2167 87.6173 52.0707 86.7227 52.64 85.828C53.2907 84.9333 54.7953 82.656 57.154 78.996C59.5127 75.336 62.4407 71.066 65.938 66.186C71.4687 73.018 75.698 78.7113 78.626 83.266C81.2287 87.5767 83.75 89.732 86.19 89.732C87.4913 89.732 88.5487 89.244 89.362 88.268C90.2567 87.2107 90.704 85.95 90.704 84.486C90.704 82.9407 89.6873 81.0293 87.654 78.752C83.6687 74.604 78.2193 68.0567 71.306 59.11C77.162 51.6273 81.92 46.2187 85.58 42.884C87.776 41.0133 88.874 39.1833 88.874 37.394C88.874 34.71 87.532 33.368 84.848 33.368C83.4653 33.368 82.164 34.1 80.944 35.564C79.8053 36.9467 75.21 43.006 67.158 53.742C62.4407 47.642 58.374 42.274 54.958 37.638C52.8433 34.7913 50.566 33.368 48.126 33.368C46.662 33.368 45.442 33.8967 44.466 34.954C43.5713 35.93 43.124 37.0687 43.124 38.37C43.124 40.4033 44.954 43.2093 48.614 46.788C52.274 50.3667 56.6253 55.084 61.668 60.94C57.4387 66.3893 54.714 69.7647 53.494 71.066C52.274 72.3673 50.566 73.9533 48.37 75.824C46.174 77.6133 44.5067 79.1993 43.368 80.582C42.2293 81.9647 41.66 83.388 41.66 84.852C41.66 86.2347 42.1073 87.414 43.002 88.39C43.978 89.2847 45.1167 89.732 46.418 89.732C47.7193 89.732 48.9393 89.3253 50.078 88.512Z"/>
</mask>
<path fill-rule="evenodd" clip-rule="evenodd" d="M24 0C12.9543 0 4 8.95431 4 20V105C4 116.046 12.9543 125 24 125H109C120.046 125 129 116.046 129 105V20C129 8.9543 120.046 0 109 0H24ZM50.078 88.512C51.2167 87.6173 52.0707 86.7227 52.64 85.828C53.2907 84.9333 54.7953 82.656 57.154 78.996C59.5127 75.336 62.4407 71.066 65.938 66.186C71.4687 73.018 75.698 78.7113 78.626 83.266C81.2287 87.5767 83.75 89.732 86.19 89.732C87.4913 89.732 88.5487 89.244 89.362 88.268C90.2567 87.2107 90.704 85.95 90.704 84.486C90.704 82.9407 89.6873 81.0293 87.654 78.752C83.6687 74.604 78.2193 68.0567 71.306 59.11C77.162 51.6273 81.92 46.2187 85.58 42.884C87.776 41.0133 88.874 39.1833 88.874 37.394C88.874 34.71 87.532 33.368 84.848 33.368C83.4653 33.368 82.164 34.1 80.944 35.564C79.8053 36.9467 75.21 43.006 67.158 53.742C62.4407 47.642 58.374 42.274 54.958 37.638C52.8433 34.7913 50.566 33.368 48.126 33.368C46.662 33.368 45.442 33.8967 44.466 34.954C43.5713 35.93 43.124 37.0687 43.124 38.37C43.124 40.4033 44.954 43.2093 48.614 46.788C52.274 50.3667 56.6253 55.084 61.668 60.94C57.4387 66.3893 54.714 69.7647 53.494 71.066C52.274 72.3673 50.566 73.9533 48.37 75.824C46.174 77.6133 44.5067 79.1993 43.368 80.582C42.2293 81.9647 41.66 83.388 41.66 84.852C41.66 86.2347 42.1073 87.414 43.002 88.39C43.978 89.2847 45.1167 89.732 46.418 89.732C47.7193 89.732 48.9393 89.3253 50.078 88.512Z" fill="url(#paint0_linear_2_24)"/>
<path d="M52.64 85.828L48.5963 82.8871L48.505 83.0127L48.4217 83.1436L52.64 85.828ZM50.078 88.512L52.9842 92.5807L53.0772 92.5142L53.1671 92.4436L50.078 88.512ZM57.154 78.996L61.3569 81.7045V81.7045L57.154 78.996ZM65.938 66.186L69.8242 63.04L65.6959 57.9403L61.8739 63.2734L65.938 66.186ZM78.626 83.266L82.9063 80.6817L82.8699 80.6214L82.8319 80.5622L78.626 83.266ZM89.362 88.268L85.5451 85.0383L85.5329 85.0526L85.5209 85.0671L89.362 88.268ZM87.654 78.752L91.3837 75.4219L91.3228 75.3538L91.2595 75.2879L87.654 78.752ZM71.306 59.11L67.3685 56.0285L64.9721 59.0905L67.3496 62.1672L71.306 59.11ZM85.58 42.884L82.3377 39.0778L82.2742 39.1319L82.2125 39.188L85.58 42.884ZM80.944 35.564L77.1029 32.3631L77.0936 32.3742L77.0843 32.3855L80.944 35.564ZM67.158 53.742L63.2027 56.8007L67.2189 61.9941L71.158 56.742L67.158 53.742ZM54.958 37.638L58.9833 34.672L58.9775 34.6642L58.9717 34.6564L54.958 37.638ZM44.466 34.954L40.792 31.5626L40.7861 31.569L40.7802 31.5754L44.466 34.954ZM48.614 46.788L52.1096 43.213L52.1096 43.213L48.614 46.788ZM61.668 60.94L65.6179 64.0056L68.1248 60.7756L65.4568 57.6774L61.668 60.94ZM53.494 71.066L57.1417 74.4857L57.1417 74.4857L53.494 71.066ZM48.37 75.824L51.5284 79.7002L51.5707 79.6656L51.6123 79.6302L48.37 75.824ZM43.002 88.39L39.3162 91.7686L39.4631 91.9289L39.6234 92.0758L43.002 88.39ZM9 20C9 11.7157 15.7157 5 24 5V-5C10.1929 -5 -1 6.19289 -1 20H9ZM9 105V20H-1V105H9ZM24 120C15.7157 120 9 113.284 9 105H-1C-1 118.807 10.1929 130 24 130V120ZM109 120H24V130H109V120ZM124 105C124 113.284 117.284 120 109 120V130C122.807 130 134 118.807 134 105H124ZM124 20V105H134V20H124ZM109 5C117.284 5 124 11.7157 124 20H134C134 6.19288 122.807 -5 109 -5V5ZM24 5H109V-5H24V5ZM48.4217 83.1436C48.2439 83.4229 47.8344 83.916 46.9889 84.5804L53.1671 92.4436C54.5989 91.3186 55.8974 90.0224 56.8583 88.5124L48.4217 83.1436ZM52.9511 76.2875C50.5648 79.9904 49.1456 82.1319 48.5963 82.8871L56.6837 88.7689C57.4358 87.7347 59.0259 85.3216 61.3569 81.7045L52.9511 76.2875ZM61.8739 63.2734C58.3451 68.1973 55.3675 72.538 52.9511 76.2875L61.3569 81.7045C63.6579 78.1339 66.5362 73.9347 70.0021 69.0986L61.8739 63.2734ZM82.8319 80.5622C79.7642 75.7902 75.4084 69.9381 69.8242 63.04L62.0518 69.332C67.5289 76.0979 71.6318 81.6325 74.4201 85.9698L82.8319 80.5622ZM86.19 84.732C86.5299 84.732 86.3995 84.8975 85.7179 84.3149C85.0169 83.7156 84.059 82.5908 82.9063 80.6817L74.3457 85.8503C75.7957 88.2519 77.3998 90.36 79.2201 91.9161C81.0599 93.4888 83.4101 94.732 86.19 94.732V84.732ZM85.5209 85.0671C85.5457 85.0373 85.6587 84.9208 85.8637 84.8262C86.0654 84.7331 86.2027 84.732 86.19 84.732V94.732C88.9336 94.732 91.4135 93.6165 93.2031 91.4689L85.5209 85.0671ZM85.704 84.486C85.704 84.8404 85.6299 84.938 85.5451 85.0383L93.1789 91.4977C94.8834 89.4833 95.704 87.0595 95.704 84.486H85.704ZM83.9243 82.0821C84.7738 83.0335 85.2661 83.7508 85.5271 84.2416C85.7964 84.7478 85.704 84.7942 85.704 84.486H95.704C95.704 80.9714 93.5491 77.8471 91.3837 75.4219L83.9243 82.0821ZM67.3496 62.1672C74.2894 71.1481 79.8711 77.8683 84.0485 82.2161L91.2595 75.2879C87.4662 71.3397 82.1493 64.9652 75.2624 56.0528L67.3496 62.1672ZM82.2125 39.188C78.2354 42.8117 73.2706 48.4868 67.3685 56.0285L75.2435 62.1915C81.0534 54.7679 85.6047 49.6256 88.9475 46.58L82.2125 39.188ZM83.874 37.394C83.874 37.2215 83.9362 37.2474 83.763 37.536C83.572 37.8545 83.1581 38.3789 82.3377 39.0778L88.8223 46.6902C91.4618 44.4418 93.874 41.3461 93.874 37.394H83.874ZM84.848 38.368C85.1173 38.368 85.1493 38.4034 85.0282 38.363C84.883 38.3146 84.6073 38.1853 84.332 37.91C84.0566 37.6347 83.9274 37.359 83.879 37.2138C83.8386 37.0927 83.874 37.1247 83.874 37.394H93.874C93.874 35.2813 93.3424 32.7784 91.403 30.839C89.4636 28.8996 86.9607 28.368 84.848 28.368V38.368ZM84.7851 38.7649C85.1087 38.3766 85.2892 38.2732 85.2863 38.2749C85.2797 38.2786 85.2305 38.3049 85.1418 38.3291C85.0512 38.3538 84.9494 38.368 84.848 38.368V28.368C81.478 28.368 78.8949 30.2126 77.1029 32.3631L84.7851 38.7649ZM71.158 56.742C79.2606 45.9385 83.7586 40.0115 84.8037 38.7425L77.0843 32.3855C75.8521 33.8818 71.1594 40.0735 63.158 50.742L71.158 56.742ZM50.9327 40.604C54.3779 45.2796 58.4691 50.6796 63.2027 56.8007L71.1133 50.6833C66.4123 44.6044 62.3701 39.2684 58.9833 34.672L50.9327 40.604ZM48.126 38.368C48.3574 38.368 49.3232 38.4374 50.9443 40.6196L58.9717 34.6564C56.3634 31.1452 52.7746 28.368 48.126 28.368V38.368ZM48.14 38.3454C48.1563 38.3278 48.1672 38.3176 48.1721 38.3133C48.1769 38.3089 48.1767 38.3096 48.1712 38.3135C48.1657 38.3175 48.1564 38.3238 48.1435 38.3311C48.1307 38.3384 48.1163 38.3457 48.101 38.3523C48.0858 38.3589 48.0719 38.3639 48.0604 38.3675C48.0488 38.371 48.0417 38.3725 48.04 38.3729C48.0384 38.3732 48.0439 38.372 48.0574 38.3707C48.071 38.3695 48.0935 38.368 48.126 38.368V28.368C45.2941 28.368 42.7331 29.4597 40.792 31.5626L48.14 38.3454ZM48.124 38.37C48.124 38.3323 48.1271 38.3195 48.1259 38.3261C48.1254 38.329 48.1242 38.3347 48.1219 38.3428C48.1196 38.3508 48.1167 38.3595 48.1133 38.3683C48.1098 38.377 48.1065 38.3843 48.1037 38.3896C48.101 38.395 48.0996 38.397 48.1005 38.3956C48.1019 38.3935 48.1157 38.372 48.1518 38.3326L40.7802 31.5754C39.0566 33.4557 38.124 35.7938 38.124 38.37H48.124ZM52.1096 43.213C50.4191 41.56 49.325 40.2501 48.6846 39.2682C47.9902 38.2035 48.124 37.974 48.124 38.37H38.124C38.124 40.7993 39.1728 42.9895 40.3084 44.7308C41.498 46.5548 43.1489 48.4373 45.1184 50.363L52.1096 43.213ZM65.4568 57.6774C60.3627 51.7616 55.9091 46.928 52.1096 43.213L45.1184 50.363C48.6389 53.8053 52.888 58.4064 57.8792 64.2026L65.4568 57.6774ZM57.1417 74.4857C58.5563 72.9768 61.4388 69.3903 65.6179 64.0056L57.7181 57.8744C53.4386 63.3884 50.8717 66.5525 49.8463 67.6463L57.1417 74.4857ZM51.6123 79.6302C53.8754 77.7024 55.7406 75.9802 57.1417 74.4857L49.8463 67.6463C48.8074 68.7545 47.2566 70.2042 45.1277 72.0178L51.6123 79.6302ZM47.2276 83.7605C48.0716 82.7358 49.4593 81.3861 51.5284 79.7002L45.2116 71.9478C42.8887 73.8406 40.9417 75.6629 39.5084 77.4035L47.2276 83.7605ZM46.66 84.852C46.66 84.7901 46.6558 84.4549 47.2276 83.7605L39.5084 77.4035C37.8029 79.4744 36.66 81.9859 36.66 84.852H46.66ZM46.6878 85.0114C46.6637 84.9852 46.6572 84.9735 46.6594 84.9771C46.6618 84.9811 46.6666 84.99 46.6705 85.0002C46.6743 85.0102 46.6725 85.0091 46.6694 84.9909C46.666 84.9718 46.66 84.9274 46.66 84.852H36.66C36.66 87.4247 37.536 89.8265 39.3162 91.7686L46.6878 85.0114ZM46.418 84.732C46.3803 84.732 46.3675 84.7289 46.3741 84.7301C46.377 84.7306 46.3827 84.7318 46.3908 84.7341C46.3988 84.7364 46.4075 84.7393 46.4163 84.7427C46.425 84.7462 46.4323 84.7495 46.4376 84.7523C46.443 84.755 46.445 84.7564 46.4436 84.7555C46.4415 84.7541 46.42 84.7403 46.3806 84.7042L39.6234 92.0758C41.5037 93.7994 43.8418 94.732 46.418 94.732V84.732ZM47.1718 84.4433C46.8137 84.6991 46.5973 84.732 46.418 84.732V94.732C48.8414 94.732 51.065 93.9516 52.9842 92.5807L47.1718 84.4433Z" fill="black" mask="url(#path-1-inside-1_2_24)"/>
</g>
<defs>
<filter id="filter0_dddd_2_24" x="0" y="0" width="133" height="133" filterUnits="userSpaceOnUse" color-interpolation-filters="sRGB">
<feFlood flood-opacity="0" result="BackgroundImageFix"/>
<feColorMatrix in="SourceAlpha" type="matrix" values="0 0 0 0 0 0 0 0 0 0 0 0 0 0 0 0 0 0 127 0" result="hardAlpha"/>
<feOffset dy="4"/>
<feGaussianBlur stdDeviation="2"/>
<feComposite in2="hardAlpha" operator="out"/>
<feColorMatrix type="matrix" values="0 0 0 0 0 0 0 0 0 0 0 0 0 0 0 0 0 0 0.25 0"/>
<feBlend mode="normal" in2="BackgroundImageFix" result="effect1_dropShadow_2_24"/>
<feColorMatrix in="SourceAlpha" type="matrix" values="0 0 0 0 0 0 0 0 0 0 0 0 0 0 0 0 0 0 127 0" result="hardAlpha"/>
<feOffset dy="4"/>
<feGaussianBlur stdDeviation="2"/>
<feComposite in2="hardAlpha" operator="out"/>
<feColorMatrix type="matrix" values="0 0 0 0 0 0 0 0 0 0 0 0 0 0 0 0 0 0 0.25 0"/>
<feBlend mode="normal" in2="effect1_dropShadow_2_24" result="effect2_dropShadow_2_24"/>
<feColorMatrix in="SourceAlpha" type="matrix" values="0 0 0 0 0 0 0 0 0 0 0 0 0 0 0 0 0 0 127 0" result="hardAlpha"/>
<feOffset dy="4"/>
<feGaussianBlur stdDeviation="2"/>
<feComposite in2="hardAlpha" operator="out"/>
<feColorMatrix type="matrix" values="0 0 0 0 0 0 0 0 0 0 0 0 0 0 0 0 0 0 0.25 0"/>
<feBlend mode="normal" in2="effect2_dropShadow_2_24" result="effect3_dropShadow_2_24"/>
<feColorMatrix in="SourceAlpha" type="matrix" values="0 0 0 0 0 0 0 0 0 0 0 0 0 0 0 0 0 0 127 0" result="hardAlpha"/>
<feOffset dy="4"/>
<feGaussianBlur stdDeviation="2"/>
<feComposite in2="hardAlpha" operator="out"/>
<feColorMatrix type="matrix" values="0 0 0 0 0 0 0 0 0 0 0 0 0 0 0 0 0 0 0.25 0"/>
<feBlend mode="normal" in2="effect3_dropShadow_2_24" result="effect4_dropShadow_2_24"/>
<feBlend mode="normal" in="SourceGraphic" in2="effect4_dropShadow_2_24" result="shape"/>
</filter>
<linearGradient id="paint0_linear_2_24" x1="66.5" y1="0" x2="66.5" y2="125" gradientUnits="userSpaceOnUse">
<stop stop-color="#E9E8DC"/>
<stop offset="1" stop-color="#83827C"/>
</linearGradient>
</defs>
</svg>
